<svg width="145" height="145" viewBox="0 0 145 145" fill="none" xmlns="http://www.w3.org/2000/svg">
<path d="M45.137 78.9897V85.7603" stroke="#FFA500" stroke-width="2" stroke-linecap="round"/>
<path d="M30.7745 73.0406L25.987 77.8281" stroke="#FFA500" stroke-width="2" stroke-linecap="round"/>
<path d="M24.8253 58.6781H18.0548" stroke="#FFA500" stroke-width="2" stroke-linecap="round"/>
<path d="M30.7745 44.3157L25.987 39.5282" stroke="#FFA500" stroke-width="2" stroke-linecap="round"/>
<path d="M45.137 38.3665V31.5959" stroke="#FFA500" stroke-width="2" stroke-linecap="round"/>
<path d="M59.4995 44.3157L64.287 39.5282" stroke="#FFA500" stroke-width="2" stroke-linecap="round"/>
<path d="M65.4486 58.6781H72.2192" stroke="#FFA500" stroke-width="2" stroke-linecap="round"/>
<path d="M59.4995 73.0406L64.287 77.8281" stroke="#FFA500" stroke-width="2" stroke-linecap="round"/>
<path d="M45.137 69.9624C51.3691 69.9624 56.4212 64.9103 56.4212 58.6782C56.4212 52.4461 51.3691 47.3939 45.137 47.3939C38.9049 47.3939 33.8528 52.4461 33.8528 58.6782C33.8528 64.9103 38.9049 69.9624 45.137 69.9624Z" fill="#FFA500" stroke="#FFA500" stroke-width="2"/>
<path d="M107.652 77.6357C107.652 67.2542 99.3014 59.1295 89.1456 59.1295C86.8887 59.1295 84.8576 59.5809 82.8264 60.258C82.1493 52.5847 75.8302 46.2655 67.9312 46.2655C59.5808 46.2655 52.8103 53.0361 52.8103 61.3864C52.8103 63.1919 53.2617 64.9974 53.713 66.5771C53.036 66.3515 52.1332 66.3515 51.4562 66.3515C43.1058 66.3515 36.3353 73.122 36.3353 81.4723C36.3353 89.597 42.8802 96.3676 51.0048 96.5932H89.8226C99.7528 95.4648 107.652 87.5658 107.652 77.6357Z" fill="#91C0F8" stroke="white" stroke-width="1.2" stroke-linejoin="round"/>
</svg>
