<svg width="145" height="145" viewBox="0 0 145 145" fill="none" xmlns="http://www.w3.org/2000/svg">
<path d="M107.652 77.6356C107.652 67.2541 99.3014 59.1294 89.1456 59.1294C86.8888 59.1294 84.8576 59.5808 82.8264 60.2578C82.1494 52.5846 75.8302 46.2654 67.9312 46.2654C59.5809 46.2654 52.8103 53.0359 52.8103 61.3863C52.8103 63.1918 53.2617 64.9972 53.7131 66.577C53.036 66.3513 52.1333 66.3513 51.4562 66.3513C43.1059 66.3513 36.3353 73.1219 36.3353 81.4722C36.3353 89.5969 42.8802 96.3674 51.0048 96.5931H89.8227C99.7528 95.4647 107.652 87.5657 107.652 77.6356Z" fill="#57A0EE" stroke="white" stroke-width="1.2" stroke-linejoin="round"/>
<path d="M58.4576 104.078L55.3225 121.859" stroke="#91C0F8" stroke-width="3" stroke-linecap="round" stroke-dasharray="0.1 7"/>
<path d="M70.3542 101.592L67.2191 119.373" stroke="#91C0F8" stroke-width="3" stroke-linecap="round" stroke-dasharray="0.1 7"/>
<path d="M81.0752 105.775L77.94 123.555" stroke="#91C0F8" stroke-width="3" stroke-linecap="round" stroke-dasharray="0.1 7"/>
</svg>
